<svg width="96" height="31" viewBox="0 0 96 31" fill="none" xmlns="http://www.w3.org/2000/svg">
<path d="M15.2773 16.376C14.8906 15.8784 14.3666 15.4785 13.7043 15.1747C13.042 14.8708 12.3656 14.7184 11.6759 14.7184C10.9581 14.7184 10.3099 14.8638 9.72951 15.1535C9.14999 15.4433 8.65325 15.8308 8.2393 16.3135C7.82536 16.797 7.50037 17.3563 7.26609 17.9913C7.03093 18.6272 6.91467 19.3036 6.91467 20.0214C6.91467 20.7401 7.02477 21.4165 7.24583 22.0515C7.46602 22.6874 7.79101 23.2466 8.21905 23.7293C8.64621 24.2128 9.15703 24.5933 9.75065 24.869C10.3443 25.1455 11.0136 25.2829 11.7587 25.2829C12.4484 25.2829 13.1318 25.1517 13.8082 24.8892C14.4846 24.6267 15.0298 24.2472 15.4437 23.7495L19.2115 28.3487C18.3555 29.1775 17.251 29.8266 15.8991 30.2961C14.5463 30.7655 13.1107 31.0007 11.5932 31.0007C9.96467 31.0007 8.44364 30.7523 7.03269 30.2547C5.62087 29.757 4.39488 29.0322 3.35385 28.0792C2.31282 27.1263 1.49373 25.9734 0.896591 24.6197C0.29857 23.2678 0 21.7353 0 20.0223C0 18.3374 0.29857 16.8181 0.895711 15.4644C1.49285 14.1116 2.31194 12.9579 3.35297 12.0049C4.394 11.0519 5.62087 10.32 7.03181 9.80921C8.44364 9.29838 9.95058 9.04297 11.5509 9.04297C12.296 9.04297 13.034 9.11255 13.7659 9.24994C14.4969 9.38822 15.2007 9.57493 15.8779 9.80921C16.5535 10.0444 17.1753 10.3341 17.7407 10.6794C18.3061 11.0255 18.7967 11.4042 19.2107 11.8191L15.2773 16.376Z" fill="#FF6000"/>
<path d="M36.2272 30.3389V27.6456H36.1444C35.4821 28.6954 34.5362 29.5039 33.3084 30.0694C32.0798 30.6357 30.7754 30.9184 29.3962 30.9184C27.8505 30.9184 26.4704 30.6137 25.2558 30.0068C24.0413 29.3991 23.0126 28.5915 22.1715 27.583C21.3295 26.5746 20.6874 25.4076 20.2462 24.0821C19.804 22.7557 19.5839 21.3747 19.5839 19.9382C19.5839 18.5026 19.812 17.1278 20.2673 15.8155C20.7227 14.5041 21.3709 13.3503 22.2129 12.356C23.0549 11.3616 24.0756 10.5742 25.277 9.99383C26.4774 9.41342 27.8232 9.12366 29.3134 9.12366C30.8309 9.12366 32.1141 9.41342 33.164 9.99383C34.2129 10.5742 35.0267 11.2101 35.6063 11.8997H35.689V0.566406H42.4795V30.3389H36.2272ZM35.9779 19.9805C35.9779 19.3173 35.8599 18.6691 35.6256 18.0332C35.3905 17.3982 35.0593 16.8319 34.6322 16.3343C34.2041 15.8366 33.6862 15.4368 33.0794 15.1329C32.4717 14.8291 31.7821 14.6767 31.0088 14.6767C30.2082 14.6767 29.5045 14.8291 28.8977 15.1329C28.29 15.4377 27.78 15.8305 27.3661 16.314C26.9521 16.7975 26.6412 17.3568 26.4342 17.9918C26.2273 18.6277 26.1233 19.2759 26.1233 19.9391C26.1233 20.6023 26.2273 21.2585 26.4342 21.9076C26.6412 22.5567 26.9521 23.13 27.3661 23.6268C27.78 24.1235 28.2908 24.5251 28.8977 24.8281C29.5045 25.1328 30.2082 25.2843 31.0088 25.2843C31.7812 25.2843 32.4717 25.1328 33.0794 24.8281C33.6862 24.5242 34.2041 24.1235 34.6322 23.6268C35.0593 23.1292 35.3914 22.5637 35.6256 21.9278C35.8608 21.2928 35.9779 20.6428 35.9779 19.9805Z" fill="#FF6000"/>
<path d="M87.0043 30.3379H79.6757L71.5606 9.70312H79.0548L83.4021 23.0868H83.5263L87.8736 9.70312H95.1195L87.0043 30.3379Z" fill="#FF6000"/>
<path d="M69.3834 11.2107C69.3825 11.2071 69.3816 11.2036 69.3799 11.1992C69.3808 11.2036 69.3816 11.208 69.3825 11.2124L69.3834 11.2107Z" fill="#FF6000"/>
<path d="M68.958 20.8416C68.9245 20.7878 69.0892 20.4074 69.1104 20.3343C70.0686 16.9522 70.0034 13.1069 68.9536 9.74955L63.1152 11.8739C63.3732 12.9528 63.4736 14.0828 63.4851 15.1652C61.2242 13.7296 58.8603 12.538 56.2965 11.7488C55.3576 11.4599 54.0585 11.2345 53.3654 10.4735C52.9012 9.96357 52.8308 8.84415 53.2166 8.07703C53.6534 7.20774 54.6381 6.5419 55.724 6.37985C57.2336 6.15526 58.8568 6.58682 60.1726 7.43497L64.1042 2.76618C61.4946 0.719342 58.2007 -0.384223 54.794 0.122202C51.6418 0.590754 48.9406 2.50196 47.5675 5.23489C46.1636 8.02947 46.3794 11.4335 48.0255 13.8811C47.35 14.458 46.7511 15.1282 46.257 15.8733C44.2709 18.867 44.1176 22.8875 45.8756 25.8785C46.8532 27.5422 48.4033 28.9056 50.3577 29.8207C51.9685 30.5755 53.7468 30.9577 55.5646 30.9577C56.7668 30.9577 57.9875 30.7904 59.1888 30.4539C61.3281 29.855 63.3054 28.748 64.9321 27.2648C65.1761 28.223 65.2959 29.2376 65.2959 30.3245H71.6169C71.6178 26.8306 70.7247 23.6555 68.958 20.8416ZM53.0378 24.0915C52.4847 23.8326 51.7387 23.3754 51.3238 22.67C50.791 21.7637 50.8764 20.3466 51.5229 19.3725C52.4741 17.9387 54.055 17.7493 55.591 18.2249C57.792 18.9066 59.8397 20.1044 61.5157 21.6862C59.4601 24.302 55.7425 25.3589 53.0378 24.0915Z" fill="#FF6000"/>
</svg>
