<svg width="355" height="119" viewBox="0 0 355 119" fill="none" xmlns="http://www.w3.org/2000/svg">
<path d="M279 56.2L285.8 33.6L292.4 56.2C292.3 56.2 279 56.2 279 56.2ZM252.1 20.7L229.6 73.3H275.1L277.5 64H293.7L296 73.3H341L315.9 20.7H252.1Z" fill="white"/>
<path d="M112.7 20.7V73.3H73.9L51.1 49.4V73.3H14.4V20.7H51.2L76 44.4V20.7H112.7Z" fill="white"/>
<path d="M230.3 20.7L207.8 73.3H141.2L115.9 20.7H162.3C167.6 35.2 171.4 47.6 173.7 57.9C176.2 47.6 178.7 38.5 181.2 30.6L183.9 20.7H230.3Z" fill="white"/>
<path d="M257.4 28L232.9 45.9L214.2 20.4L238.7 2.4L257.4 28Z" fill="#FCBD1B"/>
<path d="M247.2 17.5L238.8 6L223.1 17.5H7.79999L7.89999 84.6H346.5L346.4 17.5H247.2Z" fill="black"/>
<path d="M278.9 60.4L285.7 37.8L292.3 60.4H278.9ZM252.1 24.9L229.6 77.5H275.1L277.5 68.2H293.8L296.1 77.5H341L315.9 24.9H252.1Z" fill="white"/>
<path d="M112.7 24.9V77.5H73.9L51.1 53.6V77.5H14.3V24.9H51.1L75.9 48.6V24.9H112.7Z" fill="white"/>
<path d="M230.3 24.9L207.8 77.5H141.2L115.9 24.9H162.3C167.6 39.4 171.4 51.8 173.7 62.1C176.2 51.8 178.7 42.7 181.2 34.8L183.9 24.9H230.3Z" fill="white"/>
<path d="M257.4 32.1L232.9 50.1L214.2 24.5L238.7 6.6L257.4 32.1Z" fill="#FCBD1B"/>
<path d="M11.9 89.9L14.2 101.9H14.3L16.7 89.9H20.1L16.4 106.1H12.2L8.39996 89.9H11.9Z" fill="black"/>
<path d="M26.4999 89.5C31.3999 89.5 31.9999 93 31.9999 97.9C31.9999 102.8 31.3999 106.3 26.4999 106.3C21.5999 106.3 20.9999 102.8 20.9999 97.9C20.9999 93 21.5999 89.5 26.4999 89.5ZM26.4999 104C28.3999 104 28.6999 102.3 28.6999 98C28.6999 93.7 28.3999 92 26.4999 92C24.5999 92 24.2999 93.7 24.2999 98C24.2999 102.3 24.5999 104 26.4999 104Z" fill="black"/>
<path d="M39.2 89.5C44.1 89.5 44.7 93 44.7 97.9C44.7 102.8 44.1 106.3 39.2 106.3C34.3 106.3 33.7 102.8 33.7 97.9C33.6 93 34.2 89.5 39.2 89.5ZM39.2 104C41.1 104 41.4 102.3 41.4 98C41.4 93.7 41.1 92 39.2 92C37.3 92 37 93.7 37 98C36.9 102.3 37.2 104 39.2 104Z" fill="black"/>
<path d="M46.6 89.9H52.7C55.4 89.9 57 91.3 57 94.1C57 96.3 56.1 97.7 54.3 98.1C56.5 98.4 56.9 99.6 56.9 103.1C56.9 104.8 57 105.7 57.6 106V106.1H54.1C53.8 105.6 53.7 105 53.7 104.4L53.6 101.3C53.6 100 53 99.3 51.7 99.3H49.9V106.2H46.6V89.9ZM49.9 97H51.3C52.9 97 53.8 96.3 53.8 94.6C53.8 93.1 53 92.4 51.5 92.4H50L49.9 97Z" fill="black"/>
<path d="M67.2 89.9L69.5 101.9H69.6L72 89.9H75.4L71.7 106.1H67.5L63.8 89.9H67.2Z" fill="black"/>
<path d="M76.4999 106.1V89.9H79.7999V103.5H85.5999V106.2H76.4999V106.1Z" fill="black"/>
<path d="M90.2 89.9H94.2L98.5 106.1H95.1L94.3 102.7H90L89.2 106.1H85.8L90.2 89.9ZM90.7 100H93.9L92.3 92.7L90.7 100Z" fill="black"/>
<path d="M102.9 89.9H106.9L111.2 106.1H107.8L107 102.7H102.7L101.9 106.1H98.4999L102.9 89.9ZM103.3 100H106.5L104.9 92.7L103.3 100Z" fill="black"/>
<path d="M116.1 89.9L120.1 101V89.9H123.1V106.1H119.4L115.4 94.7V106.1H112.4V89.9H116.1Z" fill="black"/>
<path d="M125.6 89.9H131C135.5 89.9 136.4 93 136.4 97.8C136.4 103.6 135.2 106.1 130.8 106.1H125.6V89.9ZM128.8 103.7H130.3C132.6 103.7 133 102.3 133 97.9C133 94.2 132.7 92.3 130.2 92.3H128.8V103.7Z" fill="black"/>
<path d="M147.5 89.9V92.6H141.7V96.4H147.2V99H141.7V103.4H147.7V106.1H138.4V89.9H147.5Z" fill="black"/>
<path d="M149.4 89.9H155.5C158.2 89.9 159.8 91.3 159.8 94.1C159.8 96.3 158.9 97.7 157.1 98.1C159.3 98.4 159.7 99.6 159.7 103.1C159.7 104.8 159.8 105.7 160.4 106V106.1H156.9C156.6 105.6 156.5 105 156.5 104.4L156.4 101.3C156.4 100 155.8 99.3 154.5 99.3H152.7V106.2H149.4V89.9ZM152.7 97H154.1C155.7 97 156.6 96.3 156.6 94.6C156.6 93.1 155.8 92.4 154.3 92.4H152.8V97H152.7Z" fill="black"/>
<path d="M171.1 89.9V92.6H165.3V96.4H170.8V99H165.3V103.4H171.3V106.1H162V89.9H171.1Z" fill="black"/>
<path d="M176.8 89.9L180.8 101V89.9H183.8V106.1H180.1L176.1 94.7V106.1H173.1V89.9H176.8Z" fill="black"/>
<path d="M189.2 102.5V106H186.2V102.5H189.2Z" fill="black"/>
<path d="M198.6 89.9L200.9 101.9H201L203.4 89.9H206.8L203.1 106.1H198.9L195.2 89.9H198.6Z" fill="black"/>
<path d="M213.1 89.5C218 89.5 218.6 93 218.6 97.9C218.6 102.8 218 106.3 213.1 106.3C208.2 106.3 207.6 102.8 207.6 97.9C207.6 93 208.2 89.5 213.1 89.5ZM213.1 104C215 104 215.3 102.3 215.3 98C215.3 93.7 215 92 213.1 92C211.2 92 210.9 93.7 210.9 98C210.9 102.3 211.2 104 213.1 104Z" fill="black"/>
<path d="M225.8 89.5C230.7 89.5 231.3 93 231.3 97.9C231.3 102.8 230.7 106.3 225.8 106.3C220.9 106.3 220.3 102.8 220.3 97.9C220.3 93 220.9 89.5 225.8 89.5ZM225.8 104C227.7 104 228 102.3 228 98C228 93.7 227.7 92 225.8 92C223.9 92 223.6 93.7 223.6 98C223.5 102.3 223.8 104 225.8 104Z" fill="black"/>
<path d="M233.2 89.9H239.3C242 89.9 243.6 91.3 243.6 94.1C243.6 96.3 242.7 97.7 240.9 98.1C243.1 98.4 243.5 99.6 243.5 103.1C243.5 104.8 243.6 105.7 244.2 106V106.1H240.7C240.4 105.6 240.3 105 240.3 104.4L240.2 101.3C240.2 100 239.6 99.3 238.3 99.3H236.5V106.2H233.2V89.9ZM236.5 97H237.9C239.5 97 240.4 96.3 240.4 94.6C240.4 93.1 239.6 92.4 238.1 92.4H236.6V97H236.5Z" fill="black"/>
<path d="M250.4 89.9H253.5L255.3 101.9L257.2 89.9H260.3L262.2 101.9L264 89.9H267.1L264.1 106.1H260.4L258.6 94.3L256.8 106.1H253.1L250.4 89.9Z" fill="black"/>
<path d="M277.7 89.9V92.6H271.9V96.4H277.4V99H271.9V103.4H277.9V106.1H268.6V89.9H277.7Z" fill="black"/>
<path d="M279.6 106.1V89.9H282.9V103.5H288.7V106.2H279.6V106.1Z" fill="black"/>
<path d="M290.9 89.9L293.2 101.9H293.3L295.7 89.9H299.1L295.4 106.1H291.2L287.5 89.9H290.9Z" fill="black"/>
<path d="M302.5 89.9H306.5L310.8 106.1H307.4L306.6 102.7H302.3L301.5 106.1H298.1L302.5 89.9ZM303 100H306.2L304.6 92.7L303 100Z" fill="black"/>
<path d="M315.2 89.9H319.2L323.5 106.1H320.1L319.3 102.7H315L314.2 106.1H310.8L315.2 89.9ZM315.6 100H318.8L317.2 92.7L315.6 100Z" fill="black"/>
<path d="M324.7 89.9H330.8C333.5 89.9 335.1 91.3 335.1 94.1C335.1 96.3 334.2 97.7 332.4 98.1C334.6 98.4 335 99.6 335 103.1C335 104.8 335.1 105.7 335.7 106V106.1H332.2C331.9 105.6 331.8 105 331.8 104.4L331.7 101.3C331.7 100 331.1 99.3 329.8 99.3H328V106.2H324.7V89.9ZM328 97H329.4C331 97 331.9 96.3 331.9 94.6C331.9 93.1 331.1 92.4 329.6 92.4H328V97Z" fill="black"/>
<path d="M346.4 89.9V92.6H342.9V106.2H339.6V92.5H336.1V89.8H346.4V89.9Z" fill="black"/>
</svg>
