<svg width="72" height="31" viewBox="0 0 72 31" fill="none" xmlns="http://www.w3.org/2000/svg">
<path d="M56.1891 29.8323C63.5646 29.8323 69.5437 23.8532 69.5437 16.4777C69.5437 9.10211 63.5646 3.12305 56.1891 3.12305C48.8135 3.12305 42.8345 9.10211 42.8345 16.4777C42.8345 23.8532 48.8135 29.8323 56.1891 29.8323Z" fill="white"/>
<path d="M60.9888 13.8828C59.8432 13.8828 59.5063 15.0961 59.0343 16.9154C58.5628 18.5326 58.2255 20.0827 59.3712 20.0827C60.3147 20.0827 60.7862 19.0046 61.2581 17.0501C61.7296 15.2307 61.9994 13.8828 60.9884 13.8828H60.9888Z" fill="#29347E"/>
<path d="M55.7316 0C47.1713 0 40.2316 6.93928 40.2316 15.5C40.2316 24.0607 47.1709 31 55.7316 31C64.2923 31 71.2316 24.0607 71.2316 15.5C71.2316 6.93928 64.2923 0 55.7316 0ZM62.9425 21.9692H60.0445L60.3814 20.756H60.3138C59.9094 21.4297 59.1006 22.2385 57.7532 22.2385C56.8097 22.2385 56.136 21.9016 55.7987 21.1604C55.3272 21.767 54.4508 22.2385 53.5073 22.2385C51.4857 22.2385 50.8115 20.8235 51.755 17.0496L52.3616 14.6236L48.6553 21.9692H45.0836L45.2182 11.9278H48.3184L47.5772 19.341H47.6447L50.7449 11.9278H53.0363L53.8451 8.693H56.8777L54.8561 16.9145C54.4517 18.5317 54.1149 20.0818 55.2605 20.0818C55.3952 20.0818 55.4627 20.0818 55.5974 20.0142C55.5298 19.2054 55.665 18.2619 56.0018 17.0492C56.8106 13.8819 57.8212 11.6581 60.3148 11.6581C61.1236 11.6581 61.9995 11.9278 62.2017 13.006H62.2693L63.3474 8.693H66.38L62.943 21.9687L62.9425 21.9692Z" fill="#29347E"/>
<path d="M5.18887 11.9287C1.68474 11.9287 0 15.5679 0 18.8699C0 21.2959 1.21324 22.3069 3.10019 22.3069C6.53723 22.3069 8.35662 18.6676 8.35662 15.3657C8.28906 13.0744 7.14338 11.9287 5.18934 11.9287H5.18887ZM3.30192 20.959C2.02159 20.959 1.54962 20.2177 1.54962 18.8699C1.54962 16.5114 2.56066 13.2766 4.98666 13.2766C5.9977 13.2766 6.80605 13.8832 6.80605 15.4333C6.73849 17.6571 5.72793 20.9595 3.30192 20.9595V20.959ZM15.4324 11.9287C14.0175 11.9287 13.1411 12.8722 12.602 13.4788C12.5345 13.1419 12.3998 12.7375 12.3323 12.4677C12.1976 12.1309 12.13 12.0633 11.9954 12.0633C11.9278 12.0633 11.8607 12.1309 11.7932 12.1309L11.0519 12.4677C10.9173 12.5353 10.7151 12.5353 10.7151 12.7375C10.7151 12.8722 10.7826 12.9397 10.8497 13.0073C11.0519 13.4788 11.0519 13.8161 11.0519 14.153C11.0519 14.5574 10.9844 15.0289 10.9173 15.3662L8.62591 26.1488C8.62591 26.2386 8.6708 26.2835 8.76056 26.2835C8.82812 26.2835 8.89521 26.2159 8.96277 26.2159L9.9738 25.9461C10.1084 25.8786 10.176 25.7439 10.176 25.6093L11.0519 21.5656C11.5234 21.8354 12.13 22.2393 13.2757 22.2393C16.3084 22.2393 17.7233 18.3979 17.7233 14.8937C17.7233 12.9392 16.9145 11.9287 15.432 11.9287H15.4324ZM13.2086 20.959C12.3327 20.959 11.7937 20.6222 11.3217 20.3524L11.9954 17.1176C12.3998 15.096 13.4779 13.3437 15.028 13.3437C15.9039 13.3437 16.1737 14.0174 16.1737 15.096C16.1737 17.1851 15.4324 20.959 13.2086 20.959ZM27.4278 14.5569C27.4278 13.0744 26.5519 11.9287 24.7321 11.9287C21.6994 11.9287 19.5432 15.096 19.5432 18.533C19.5432 20.8244 20.5542 22.2393 22.8451 22.2393C24.7996 22.2393 26.619 21.0261 26.619 20.8244C26.619 20.7793 26.5965 20.7344 26.5514 20.6897L26.0799 19.9484C26.0124 19.8809 25.9453 19.8138 25.8777 19.8138C25.608 19.8138 24.7996 20.8248 22.9798 20.8248C21.6319 20.8248 21.0928 20.016 21.0928 18.601V18.062C22.9122 18.1295 27.4274 18.1295 27.4274 14.5578L27.4278 14.5569ZM24.5299 13.2095C25.5409 13.2095 26.0124 13.7485 26.0124 14.6245C26.0124 16.8483 22.4407 16.8483 21.295 16.8483C21.5648 15.8372 22.1709 13.209 24.5299 13.209V13.2095ZM35.3125 11.9287C33.4931 11.9287 32.3474 13.0068 31.6061 14.0854H31.5386C31.5386 13.8832 31.6061 13.5463 31.6061 13.1419C31.6061 12.5353 31.4039 11.9287 31.2017 11.9287C31.1342 11.9287 31.0671 11.9962 30.932 12.0633L30.1907 12.4002C30.1231 12.4002 29.9885 12.4677 29.9885 12.5348C30.0561 12.9392 30.1231 13.3437 30.1231 13.7481C30.1231 14.0178 30.0556 14.4893 29.9885 14.8937L28.5735 21.7674V21.902C28.5735 21.9696 28.6411 22.0367 28.7082 22.0367H29.7863C29.9209 22.0367 29.9885 21.9691 30.0561 21.8344L30.9995 17.3868C31.2693 16.039 32.4821 13.3432 34.7059 13.3432C35.3125 13.3432 35.6493 13.68 35.6493 14.2191C35.6493 14.4889 35.5818 14.7582 35.5147 15.0279L34.0997 21.7669V21.9015C34.0997 21.9691 34.1673 22.0362 34.2344 22.0362H35.3125C35.4471 22.0362 35.5147 21.9686 35.5822 21.834L37.0648 15.0275C37.1994 14.556 37.267 14.084 37.267 13.6125C37.1323 12.4668 36.3235 11.9277 35.3125 11.9277V11.9287Z" fill="#29347E"/>
</svg>
