<svg width="85" height="31" viewBox="0 0 85 31" fill="none" xmlns="http://www.w3.org/2000/svg">
<g clip-path="url(#clip0_35_689)">
<mask id="mask0_35_689" style="mask-type:luminance" maskUnits="userSpaceOnUse" x="0" y="0" width="85" height="31">
<path d="M0.239258 0.144531H84.5881V30.7841H0.239258V0.144531Z" fill="white"/>
</mask>
<g mask="url(#mask0_35_689)">
<path d="M0.770435 15.1013C0.981308 15.6535 1.09954 16.2058 1.00654 16.8099C0.981308 16.9743 1.02348 17.2071 1.10783 17.3452C1.47911 17.9493 1.58869 18.6227 1.54652 19.2957C1.50434 19.9777 1.90085 20.5818 1.74045 21.2894C1.67304 21.5915 2.17084 21.9541 2.4913 21.9455C2.74434 21.9368 3.00568 21.9195 3.25909 21.9368C3.3009 21.9368 3.34308 22.0749 3.3939 22.1527C3.21655 22.5925 2.78652 22.4029 2.49995 22.5756C2.43218 22.6188 2.39001 22.7053 2.31395 22.7998C2.33918 22.9551 2.37306 23.1451 2.40695 23.3524C2.92962 23.4212 3.3939 23.3524 3.85782 23.2143C4.01787 23.1624 4.19521 23.1278 4.36391 23.1278C4.52396 23.1278 4.71789 23.1537 4.66742 23.4558C3.97569 23.7233 3.0648 23.2658 2.49959 24.2067C2.65134 24.3966 2.80346 24.5693 2.92998 24.7506C3.05614 24.9316 3.17438 25.1302 3.30126 25.3288C4.06004 25.234 4.78566 25.1475 5.49397 25.0613C5.62915 25.5361 5.73873 25.9329 5.8566 26.3557C6.87744 26.399 7.82221 26.6232 8.76663 26.235C9.10403 26.0969 9.55137 26.2609 9.93094 26.2004C10.4114 26.1315 10.4284 26.6319 10.6731 26.8651C10.7993 26.8737 10.9262 26.891 11.061 26.8824C13.1445 26.7526 15.2363 26.6063 17.3198 26.4938C18.0958 26.4506 18.8719 26.5025 19.6393 26.3298C19.9767 26.2523 20.3311 26.2865 20.6854 26.3129C20.7863 26.3211 20.8876 26.4509 21.0311 26.5544C20.8541 26.6146 20.7359 26.6751 20.6176 26.6841C20.0106 26.7357 19.4029 26.7616 18.8045 26.8305C18.5176 26.8651 18.4585 27.0551 18.6441 27.3398C19.0572 27.2533 19.4706 27.1153 19.8924 27.0983C20.3563 27.0806 20.8368 27.0377 21.3011 27.2706C21.419 27.3312 21.6298 27.2274 21.7733 27.1499C21.9589 27.0464 22.1276 26.891 22.288 26.7703C22.2794 26.7011 22.2711 26.6492 22.2711 26.6063C22.288 26.4765 22.2624 26.2782 22.3302 26.235C22.4146 26.1744 22.6168 26.1917 22.6842 26.2696C23.2833 27.0204 23.9581 27.2537 24.7763 26.8218C24.945 26.7353 25.1981 26.7872 25.4089 26.8218C25.6703 26.8737 25.915 27.0118 26.1681 27.0551C26.4211 27.0983 26.716 27.1416 26.9355 27.0464C27.1547 26.9512 27.2981 26.6751 27.509 26.4336C28.302 26.6063 29.0864 26.5025 29.8203 26.0537C29.736 25.8987 29.6686 25.7603 29.5842 25.6139C29.9468 25.5447 30.259 25.5101 30.436 25.8897C30.613 26.2609 30.8747 26.3298 31.2121 26.2609C31.5495 26.1917 31.8869 26.1575 32.2326 26.1229C32.8399 26.071 33.4556 25.9156 34.0461 26.0104C34.7039 26.1056 35.3282 25.9672 35.9778 26.0277C36.2222 26.0537 36.5596 26.0191 36.7117 25.8554C37.0826 25.4495 37.4539 25.5274 37.9009 25.6309C38.2804 25.7174 38.677 25.7257 39.0648 25.7001C39.6217 25.6568 40.1613 25.7001 40.7013 25.8724C40.2288 26.4509 39.5709 26.4163 38.9383 26.4765C37.9513 26.563 36.9478 26.5198 35.9691 26.7613C35.3452 26.917 34.6704 26.9083 34.0208 26.9599C33.1521 27.0378 32.2834 27.0979 31.423 27.1758C31.1613 27.1931 30.8999 27.2277 30.6469 27.2447C29.2634 27.3398 27.8716 27.4177 26.4885 27.5294C25.7546 27.59 25.0294 27.7367 24.2785 27.7024C23.7973 27.6868 23.3165 27.7449 22.8529 27.8748C22.0094 28.108 21.1576 28.1768 20.2803 28.1253C20.1116 28.1166 19.9176 28.0993 19.7828 28.1768C19.3272 28.4273 18.8463 28.3754 18.3824 28.2806C17.885 28.1768 17.4463 28.2633 16.9741 28.3841C16.5271 28.4962 16.0376 28.4014 15.5654 28.4014C15.481 28.4014 15.388 28.436 15.3206 28.4789C14.8667 28.7423 14.3649 28.9126 13.8445 28.9799C13.7854 28.9882 13.7349 29.1003 13.6589 29.1955C13.794 29.2388 13.9206 29.3163 14.0384 29.3076C15.5992 29.247 17.1511 29.1778 18.7029 29.1093C19.1163 28.8329 19.5802 29.2557 19.985 29.083C20.9298 28.6775 21.9759 29.0744 22.9289 28.6516C23.3002 28.4875 23.8229 28.7554 24.2194 28.6256C25.3246 28.2633 26.4885 28.6948 27.5851 28.3149C27.6947 28.2806 27.8464 28.3235 27.9646 28.3841C28.5126 28.6602 29.0525 28.6343 29.6264 28.5048C30.0395 28.41 30.4782 28.4616 30.883 28.4533C30.9251 28.5827 30.9587 28.6429 30.9504 28.6689C30.8916 28.781 30.8073 28.8848 30.7482 28.9969C30.6047 29.2643 30.7143 29.6183 30.959 29.6785C31.0434 29.6958 31.136 29.7391 31.2204 29.7304C32.6882 29.6356 34.1726 29.6702 35.573 29.0917C36.0874 28.8761 36.6439 28.6775 37.1839 29.1782C37.3021 29.2816 37.5296 29.273 37.69 29.2557C38.9383 29.109 40.2205 29.1609 41.4096 28.6343C41.57 28.5654 41.764 28.4273 41.8991 28.4793C42.5992 28.7554 43.2823 28.4446 43.9657 28.5048C45.0283 28.5914 46.0405 28.3841 47.0444 28.082C47.6601 27.8921 48.2927 27.7626 48.9675 27.7886C49.7436 27.8146 50.528 27.6851 51.304 27.5903C51.5401 27.564 51.751 27.4 52.2063 27.1845C51.6667 27.0464 51.3714 27.0031 51.0932 26.8997C50.9919 26.8651 50.8567 26.7011 50.8654 26.6063C50.8736 26.4938 51.0002 26.3817 51.1015 26.3129C51.211 26.2436 51.3462 26.1917 51.4727 26.2004C51.9111 26.235 52.3498 26.3558 52.7715 26.3211C53.2354 26.2779 53.691 26.071 54.155 25.9848C54.4502 25.9329 54.7623 25.9935 55.0659 25.9762C55.3189 25.9589 55.6141 25.9589 55.8167 25.8208C56.2637 25.5361 56.7024 25.5187 57.1998 25.6136C57.6807 25.7084 58.1276 25.6828 58.5833 25.3976C58.9037 25.1907 59.3255 25.1042 59.705 25.0956C60.7933 25.0786 61.8476 24.69 62.9525 24.9146C63.0707 24.9406 63.2055 24.8627 63.332 24.8454C64.2851 24.7333 65.2299 24.6125 66.183 24.5001C66.959 24.4136 67.7434 24.3707 68.5195 24.2326C69.1182 24.1292 69.6921 23.9565 70.3078 23.9911C70.4765 23.9998 70.6452 23.9305 70.8139 23.8873C71.033 23.8271 71.033 23.6198 70.8052 23.3437C70.7547 23.2831 70.7043 23.2139 70.6452 23.1537C71.8343 22.8863 71.8343 22.8863 73.53 23.2576C73.6057 23.2745 73.69 23.2576 73.7661 23.2403C74.8287 22.9897 75.9083 22.9638 76.9966 23.0503C77.6461 23.1022 78.287 23.1537 79.0379 23.2053C78.6075 22.9811 78.2701 22.7998 77.9413 22.6275C77.9496 22.5236 77.9327 22.4544 77.9583 22.4375C78.0509 22.351 78.1436 22.2392 78.2535 22.2043C78.6075 22.1008 79.0462 22.4115 79.3414 21.9974C79.3666 21.4711 78.8944 20.9873 79.2401 20.4351C79.527 20.3832 79.814 20.323 80.1258 20.2624C80.0501 20.1503 80.0162 20.0642 79.9571 20.0123C79.8896 19.9604 79.7884 19.9517 79.7127 19.8998C79.4005 19.6583 79.4344 19.2957 79.7462 19.1061C80.0331 18.9331 80.32 18.9936 80.6318 19.0023C80.9188 19.0109 81.3066 19.0023 81.4753 18.8127C81.6862 18.5621 81.8805 18.5189 82.1418 18.5279L83.7106 18.5794C84.1493 18.2341 84.3688 17.7684 84.2588 17.1123C84.1579 16.5251 84.1662 15.947 84.4614 15.429C84.6301 15.1273 84.6049 14.7992 84.5288 14.4453C84.3854 13.7377 84.2336 13.0214 84.2084 12.3048C84.1914 11.5367 84.3518 10.7685 84.3771 10.0004C84.394 9.42218 84.3266 8.83534 84.2927 8.2568C84.2758 8.01529 84.2001 7.76512 84.2167 7.53226C84.301 6.59145 83.9723 5.70218 83.9215 4.77867C83.8962 4.30394 83.6518 3.96762 83.1962 3.83786C82.901 3.75134 82.614 3.57904 82.3188 3.51848C81.1127 3.26832 79.8983 3.0524 78.6918 2.81918C78.3966 2.75898 78.1014 2.68148 77.8231 2.61227C77.6883 2.24099 77.587 1.91297 77.4605 1.60261C77.2748 1.16248 76.9627 0.946565 76.5243 0.894658C75.8748 0.825809 75.2252 0.705053 74.5757 0.60989C73.3696 0.385681 72.1548 0.143809 70.9317 0.351076C70.7209 0.385681 70.4934 0.37703 70.2825 0.351076C69.2956 0.204367 68.3086 0.0144019 67.3134 0.256274C67.153 0.290518 66.9673 0.221669 66.7903 0.221669C66.3517 0.221669 65.9216 0.221669 65.4829 0.238972C64.1755 0.290518 62.8764 0.437227 61.569 0.37703C60.4725 0.325123 59.3759 0.333774 58.3216 0.583937C57.4529 0.791204 56.4576 0.325123 55.7068 1.10193C55.6902 1.11923 55.6224 1.08462 55.5802 1.08462C54.6358 1.09327 53.6993 1.24863 52.7546 1.32613C52.1558 1.37804 51.5484 1.4213 50.9411 1.40399C50.3506 1.38669 49.7349 1.40399 49.1614 1.32649C48.3684 1.21403 47.5927 1.23133 46.8166 1.29189C46.0827 1.35209 45.3405 1.5334 44.6066 1.49015C43.8222 1.4386 43.08 1.68011 42.287 1.57666C41.5618 1.48186 40.8109 1.61126 40.0687 1.64587C39.0648 1.70606 38.0613 1.73202 37.0657 1.85277C36.5091 1.91333 35.9691 1.99948 35.4039 1.99083C33.6751 1.96488 31.946 2.08599 30.3599 2.67283C29.8794 2.57767 29.4155 2.34481 29.0273 2.43961C28.4621 2.57767 27.9225 2.64688 27.3573 2.55208C26.2777 3.0524 25.0629 2.73303 23.9581 3.12161C23.6207 3.24237 23.1315 3.21641 22.8277 3.02681C22.1193 2.57767 21.4528 2.76763 20.8033 2.9576C20.4237 3.0697 20.0694 3.13026 19.6732 3.13026C18.0284 3.14756 16.3667 2.96625 14.781 3.60499C14.6289 3.66519 14.4436 3.61365 14.2662 3.60499C14.0471 3.59634 13.8362 3.54444 13.6167 3.56174C12.9675 3.61365 12.2927 3.57904 11.6853 3.76901C11.0358 3.97591 10.2849 3.59598 9.72835 4.19183C9.68618 4.23509 9.51748 4.21779 9.4836 4.16588C9.19703 3.68286 8.78358 3.7946 8.41266 3.87246C7.99091 3.96726 7.60269 4.20048 7.18095 4.28699C6.72568 4.37315 6.23653 4.31259 5.77225 4.39045C5.04699 4.5112 4.32174 4.67522 3.60477 4.84788C2.8961 5.02054 2.16219 5.14995 1.54652 5.74544C1.63916 6.31497 1.72351 6.87586 1.80785 7.38555C2.05261 7.47999 2.21302 7.5492 2.35612 7.60976C2.38135 7.88588 2.38135 8.12739 2.43218 8.36061C2.48264 8.63673 2.8961 8.70558 2.78652 9.11146C2.0609 9.45643 1.3187 9.80175 0.627331 10.1298C0.551273 10.4838 0.542621 10.8031 0.416098 11.0273C0.129528 11.5536 0.52604 12.1927 0.222168 12.7017C0.576505 13.4529 0.475215 14.3245 0.770435 15.1013ZM62.4803 23.3178C63.5346 23.4818 64.5468 23.1628 65.5842 23.1195C66.706 23.0849 67.8364 22.9897 68.9582 22.9465C69.2026 22.9382 69.4978 22.9209 69.6077 23.387C69.3969 23.4039 69.1943 23.4385 68.9917 23.4385C67.8616 23.4212 66.7482 23.6371 65.6095 23.4385C65.3734 23.3953 65.0951 23.5077 64.8673 23.6198C64.2599 23.9478 63.6525 24.0776 63.0029 23.689C62.8934 23.6285 62.7416 23.6717 62.6151 23.6458C62.5055 23.6198 62.3959 23.5593 62.2525 23.5077C62.3537 23.4212 62.4211 23.3095 62.4803 23.3178ZM57.2085 24.4745C57.2085 24.4745 57.2085 24.4658 57.1998 24.4658C57.2672 24.4485 57.3433 24.4312 57.4107 24.4139C57.3433 24.4399 57.2759 24.4575 57.2085 24.4745ZM56.9385 23.9049C57.2168 23.9824 57.1241 24.2672 57.1998 24.4572C57.0902 24.2842 56.8289 24.207 56.9385 23.9049ZM56.1707 24.3274C56.2129 24.388 56.2637 24.4399 56.2972 24.5004C56.3059 24.5174 56.255 24.5952 56.2384 24.5866C56.1707 24.5693 56.1119 24.526 56.0528 24.5001C56.0863 24.4485 56.1285 24.388 56.1707 24.3274ZM54.3572 24.552C54.3828 24.552 54.4163 24.6039 54.4415 24.6298C54.408 24.6554 54.3828 24.6987 54.3489 24.6987C54.3237 24.6987 54.2984 24.6468 54.2645 24.6212C54.2984 24.6039 54.332 24.552 54.3572 24.552ZM53.3028 24.388C53.3198 24.4312 53.3536 24.4658 53.3789 24.5001C53.3536 24.4568 53.3115 24.4226 53.2945 24.3793C53.2693 24.3018 53.2524 24.2153 53.2271 24.1292H53.2354C53.2606 24.2157 53.2693 24.3018 53.3028 24.388ZM52.6114 24.1378C52.8054 24.1205 53.0076 24.1292 53.2102 24.1292C53.0584 24.388 52.915 24.6381 52.7715 24.8714C52.3076 24.8627 52.5102 24.4741 52.3498 24.3105C52.4849 24.2153 52.5437 24.1378 52.6114 24.1378ZM35.6912 27.1499C35.7247 27.1585 35.7669 27.1672 35.8004 27.1758C35.8004 27.2104 35.7921 27.2533 35.7921 27.2879C35.7583 27.2793 35.7078 27.2879 35.6912 27.262C35.6656 27.2447 35.6826 27.1928 35.6912 27.1499ZM40.4987 28.2028C40.2543 28.2633 39.9844 28.1855 39.7227 28.1768C38.8539 28.1336 37.9935 28.0388 37.1839 28.4789C37.0743 28.5394 36.9309 28.5568 36.8043 28.5654C35.0669 28.6602 33.3377 28.7467 31.5999 28.8242C31.5325 28.8242 31.4565 28.7467 31.3808 28.7035C31.406 28.6256 31.4229 28.4789 31.4565 28.4789C32.0303 28.4789 32.553 28.2633 33.093 28.1166C33.7847 27.9353 34.4765 27.6246 35.2186 27.9613C36.2139 27.9007 37.2091 27.8405 38.213 27.7713L41.047 27.564C41.0809 27.6505 41.1061 27.7453 41.14 27.8319C40.9205 27.9613 40.7266 28.1505 40.4987 28.2028ZM50.7136 24.7593C50.8145 24.7246 50.9497 24.7852 51.0593 24.8281C51.1098 24.8454 51.1353 24.9316 51.1941 25.0181C51.0171 25.07 50.8654 25.1302 50.7136 25.1478C50.6545 25.1561 50.5784 25.0613 50.511 25.0181C50.5784 24.9316 50.6293 24.7848 50.7136 24.7593ZM48.0901 25.1215C48.124 25.1821 48.1575 25.2423 48.1997 25.3028C48.1323 25.3461 48.0566 25.4149 47.9888 25.4149C47.9553 25.4149 47.9131 25.2855 47.8793 25.2167C47.9467 25.1907 48.0227 25.1561 48.0901 25.1215ZM45.467 25.4322C46.0066 25.3457 46.5549 25.2682 47.1032 25.1907C47.1288 25.1907 47.1875 25.2423 47.1875 25.2682C47.1875 25.3547 47.1709 25.5014 47.1454 25.5097C46.808 25.5616 46.4706 25.6136 46.1249 25.6222C45.8888 25.6309 45.6357 25.8122 45.4162 25.5534C45.4331 25.5101 45.4418 25.4409 45.467 25.4322ZM47.4997 26.9339C47.584 26.9426 47.7106 26.9512 47.7444 26.8997C48.4106 26.0104 49.288 26.7959 50.0388 26.6405C50.0723 26.6319 50.1484 26.8564 50.2327 27.0291C49.5662 27.2274 48.9336 27.2966 48.2927 27.3658C46.707 27.5381 45.0958 27.4692 43.527 27.8574C43.0714 27.9699 42.5905 27.9353 42.1183 27.9353C42.0087 27.9353 41.8736 27.8319 41.7809 27.7371C41.747 27.7021 41.747 27.5298 41.7892 27.4952C42.0931 27.2793 42.5905 27.4692 42.7679 26.9689C43.0631 27.0204 43.3835 27.0118 43.6535 27.1412C44.05 27.3312 44.4127 27.271 44.8005 27.236C45.7031 27.1758 46.5805 26.8734 47.4997 26.9339ZM42.6161 25.208C43.257 25.3547 43.9066 25.5014 44.7836 25.7084C43.8475 25.8468 43.1388 25.9499 42.4305 26.0623C42.034 26.1229 41.6966 26.0021 41.3931 25.7087C42.017 25.6482 42.0509 25.6312 42.6161 25.208ZM41.6544 25.2855L41.7387 25.3201L41.6627 25.3634L41.6544 25.2855ZM41.2918 25.6828C41.1144 25.726 40.9291 25.7776 40.7518 25.8208C40.8026 25.4409 40.8448 25.4149 41.1061 25.5534C41.1652 25.5876 41.2244 25.6309 41.2918 25.6828ZM40.887 24.7593C40.5661 25.0354 40.2626 25.0267 39.8492 24.8541C40.2035 24.552 40.5074 24.552 40.887 24.7593ZM37.4622 24.8627C37.6309 24.8541 37.7996 24.8714 37.96 24.8973C37.9935 24.8973 38.0191 24.9575 38.0526 24.9921C37.167 25.3547 37.167 25.3547 36.3574 24.9748C36.8126 24.9233 37.1417 24.88 37.4622 24.8627ZM34.3582 25.1302C34.603 25.1215 34.8557 25.1302 35.1091 25.1994C34.6282 25.4236 34.1391 25.4841 33.633 25.1821C33.8691 25.1648 34.1135 25.1388 34.3582 25.1302ZM30.8495 25.5014C30.8747 25.5274 30.9169 25.5447 30.9338 25.5789C30.9421 25.6136 30.9169 25.6482 30.9086 25.6914H30.8156C30.8239 25.6222 30.8408 25.5616 30.8495 25.5014ZM27.6608 25.6914C27.686 25.6914 27.703 25.7516 27.7285 25.7862C27.6608 25.8295 27.602 25.8727 27.5343 25.907L27.4333 25.7257C27.509 25.7087 27.5847 25.6914 27.6608 25.6914ZM26.3534 26.727L26.362 26.8135L26.2863 26.7786L26.3534 26.727ZM23.612 26.0277C23.6542 26.0277 23.6881 26.1402 23.7303 26.2007C23.6711 26.2436 23.6037 26.3215 23.5446 26.3125C23.5024 26.3125 23.4689 26.1917 23.4268 26.1229C23.4855 26.0883 23.5529 26.0277 23.612 26.0277Z" fill="#EF4135"/>
<path d="M26.6317 29.3424C25.653 29.4545 24.6999 29.7912 23.6794 29.5493C23.4855 29.5061 23.2577 29.6359 23.0468 29.6791C22.6673 29.7566 22.296 29.886 21.9078 29.9033C21.5368 29.9206 21.1573 29.8345 20.702 29.7912C20.8116 29.9725 20.8534 30.1106 20.9464 30.1625C21.6803 30.6196 22.4899 30.0327 23.2408 30.4386C23.3756 30.5075 23.5782 30.4386 23.7469 30.404C23.8734 30.3781 23.9916 30.3175 24.1012 30.2486C24.5312 29.9725 25.0038 29.9898 25.4843 30.0327C25.9147 30.0673 26.353 30.1019 26.7665 30.05C27.0786 30.0154 27.146 29.7307 26.9773 29.3684C26.8764 29.3597 26.7495 29.3338 26.6313 29.3424H26.6317ZM9.66024 27.6508C9.66024 27.6767 9.66889 27.711 9.66889 27.7373C10.6558 27.7196 11.6428 27.711 12.638 27.6854C12.8994 27.6767 13.1524 27.6681 13.4058 27.6248C13.4646 27.6162 13.5068 27.4608 13.6333 27.2366C12.208 27.3833 10.9341 27.5127 9.6606 27.6508H9.66024ZM56.5589 26.494C56.3733 26.52 56.2467 26.6321 56.4154 26.8653C56.795 26.8134 57.1746 26.7702 57.5542 26.7013C57.9424 26.6321 58.4146 26.848 58.7689 26.3473C58.5411 26.3127 58.3724 26.2608 58.2124 26.2698C57.66 26.3355 57.1088 26.4103 56.5589 26.494ZM15.1015 30.6369C15.6411 30.8784 16.1133 30.8441 16.6954 30.3867C15.658 30.1019 15.658 30.1019 15.1015 30.6369ZM17.6233 27.1587C16.6197 26.9688 15.8689 27.0982 15.1267 27.3054C15.8945 27.392 16.6533 27.4002 17.6233 27.1587ZM65.4159 25.6224C65.922 25.5878 66.4281 25.5446 66.9342 25.5103V25.4844C66.4281 25.519 65.922 25.5619 65.4159 25.5965V25.6224ZM29.6852 29.1092C29.5142 29.0989 29.3428 29.1194 29.1791 29.1698C29.1286 29.1871 29.1034 29.3251 29.0691 29.403C29.0861 29.4462 29.103 29.5064 29.1282 29.5237C29.3308 29.6445 29.5417 29.722 29.7356 29.5497C29.7947 29.4978 29.8366 29.3767 29.8286 29.2992C29.82 29.239 29.7356 29.1179 29.6852 29.1092ZM11.6262 29.049C11.1115 29.1611 10.6814 29.2563 10.2427 29.3511C11.3141 29.4203 11.3141 29.4203 11.6262 29.049ZM18.7285 30.0846C18.5511 30.0327 18.2562 30.1967 18.2054 30.3521C18.2559 30.43 18.3064 30.568 18.3489 30.5594C18.5067 30.5414 18.6606 30.4976 18.8042 30.4296C18.838 30.4127 18.8294 30.2659 18.8211 30.1711C18.8014 30.1323 18.7686 30.1016 18.7285 30.0846ZM52.8728 26.9086C53.3533 26.9688 53.615 27.202 53.8006 26.8653C53.5728 26.6494 53.3367 26.7273 52.8728 26.9086ZM63.4669 25.9332C63.602 25.8812 63.8129 25.9505 63.8381 25.6916C63.349 25.7605 63.349 25.7605 63.0029 26.0882C63.1547 26.0453 63.3151 25.9937 63.4669 25.9332ZM9.12134 26.9342C9.34879 26.8909 9.61878 27.1328 9.81307 26.8134C9.4335 26.6927 9.43386 26.6927 9.12134 26.9342ZM7.79663 27.8663C7.81357 27.8663 7.82186 27.8577 7.83052 27.8577C7.81357 27.8577 7.80528 27.8577 7.79699 27.8663H7.79663Z" fill="#EF4135"/>
<path d="M7.79639 27.8657C7.93084 27.8311 7.86379 27.8484 7.79639 27.8657Z" fill="#EF4135"/>
<path d="M7.82227 27.8581C7.88931 27.8408 7.87273 27.8495 7.82227 27.8581ZM54.7959 26.7274C54.779 26.7616 54.7959 26.8222 54.7959 26.8654C54.8211 26.9 54.8633 26.9602 54.8803 26.9519C55.0407 26.9087 55.2007 26.8568 55.3525 26.7876C55.3694 26.7789 55.3694 26.7101 55.3781 26.6668C55.2177 26.6581 55.049 26.6408 54.8886 26.6408C54.855 26.6495 54.8129 26.6928 54.7959 26.7274ZM12.7055 28.8245C12.5198 28.9193 12.3259 29.0145 12.3007 29.2906C12.7477 29.3339 12.8151 29.2993 12.8407 28.9972C12.8407 28.9453 12.7224 28.8159 12.7055 28.8245ZM60.6329 26.0025C60.5655 26.0371 60.5151 26.0457 60.4981 26.08C60.4729 26.1578 60.4221 26.2782 60.4559 26.3215C60.5738 26.4945 60.7512 26.5031 60.8946 26.3907C60.9368 26.3561 60.962 26.1838 60.9368 26.1665C60.8438 26.0886 60.7259 26.0457 60.6329 26.0025ZM36.2392 29.1868C36.2983 29.2218 36.3574 29.256 36.4165 29.2733C36.4331 29.282 36.467 29.2301 36.4922 29.2045L36.3152 29.1007C36.29 29.1266 36.2644 29.1522 36.2392 29.1868ZM28.0321 29.4031C27.973 29.4114 27.9312 29.5065 27.8803 29.5581C27.9391 29.61 27.9982 29.6961 28.0404 29.6879C28.0995 29.6792 28.1417 29.584 28.1839 29.5325C28.1417 29.4892 28.0743 29.3948 28.0321 29.4031ZM62.2611 26.1492C62.5564 26.1232 62.7755 26.1146 63.0033 26.0973C62.7755 26.0973 62.5477 25.8471 62.2611 26.1492ZM14.2667 28.5055C14.2328 28.4965 14.1823 28.4706 14.1571 28.4879C14.098 28.5225 14.0558 28.5657 13.9967 28.6176C14.0641 28.6432 14.1318 28.6951 14.1906 28.6865C14.2245 28.6778 14.2411 28.5657 14.2663 28.5052L14.2667 28.5055ZM13.9123 30.6456L14.0302 30.637L13.9628 30.5504L13.9123 30.6456Z" fill="#EF4135"/>
<path d="M33.3797 8.86915C31.6848 6.48756 28.4283 5.96056 26.1004 7.68683C25.8726 7.85949 25.3161 8.27367 24.5822 8.81761C25.51 9.28369 26.5139 9.98263 27.4753 10.8373L31.2709 8.24807C31.1953 8.67955 30.5879 10.656 29.5504 13.012C30.2588 13.8926 30.8579 14.8334 31.2709 15.7566H28.2092C27.18 17.6555 25.9148 19.5112 24.4726 20.8229C24.9406 19.1759 25.1623 17.4688 25.1304 15.7569H16.5607L24.6748 12.3992C23.9413 9.66326 22.33 7.50551 19.7826 6.84983C17.7586 6.29724 15.5233 7.03078 14.2242 8.86915C12.5289 11.2515 13.0516 14.5829 15.3798 16.3178C15.9616 16.7493 23.8061 22.5838 23.8061 22.5838C23.8061 22.5838 31.6595 16.7493 32.2327 16.3174C34.5523 14.5825 35.0753 11.2515 33.3797 8.86915ZM51.0511 12.4424L49.8198 9.08507H47.3567L50.2837 15.7652H51.802L54.6868 9.08507H52.2828L51.0511 12.4424ZM46.6059 12.4338C46.6059 14.5137 45.1802 15.9984 43.1814 15.9984C42.591 15.9984 42.051 15.8431 41.5871 15.5583V18.1908H39.3601V9.09372H40.8954L41.1736 9.62902C41.7136 9.15428 42.4054 8.87781 43.1814 8.87781C45.1802 8.86952 46.6059 10.3539 46.6059 12.4338ZM44.3454 12.4338C44.3454 11.5535 43.7297 10.9061 42.8862 10.9061C42.0427 10.9061 41.4267 11.5535 41.4267 12.4338C41.4267 13.314 42.0427 13.9614 42.8862 13.9614C43.7211 13.9614 44.3454 13.314 44.3454 12.4338ZM62.7078 6.67717V15.7742H61.0461L60.8352 15.2732C60.3039 15.731 59.6291 15.9984 58.8613 15.9984C56.8539 15.9984 55.4286 14.5054 55.4286 12.4338C55.4286 10.3539 56.8539 8.86951 58.8613 8.86951C59.4604 8.86951 60.017 9.03317 60.4809 9.3356V6.67717H62.7078ZM60.6243 12.4338C60.6243 11.5622 60.0087 10.9061 59.1652 10.9061C58.3217 10.9061 57.706 11.5622 57.706 12.4338C57.706 13.3058 58.3217 13.9614 59.1652 13.9614C60.0087 13.9614 60.6243 13.3054 60.6243 12.4338ZM71.6066 9.08507V15.7652H69.8692L69.6749 15.2908C69.1436 15.7306 68.4605 15.9898 67.7014 15.9898C65.7022 15.9898 64.2766 14.4967 64.2766 12.4251C64.2766 10.3539 65.7022 8.87817 67.7014 8.87817C68.4688 8.87817 69.1605 9.13698 69.7005 9.59441L69.928 9.07642L71.6066 9.08507ZM69.464 12.4338C69.464 11.5622 68.8484 10.9148 68.0049 10.9148C67.1531 10.9148 66.5457 11.5622 66.5457 12.4338C66.5457 13.3054 67.1614 13.9614 68.0049 13.9614C68.8484 13.9614 69.464 13.3054 69.464 12.4338Z" fill="white"/>
</g>
</g>
<defs>
<clipPath id="clip0_35_689">
<rect width="84.7093" height="31" fill="white"/>
</clipPath>
</defs>
</svg>
