<svg width="242" height="71" viewBox="0 0 242 71" fill="none" xmlns="http://www.w3.org/2000/svg">
<path d="M75.2358 38.3387H87.995C97.2626 38.3387 101.901 40.9851 101.901 46.2981C101.901 50.0917 99.3455 52.3658 94.0526 53.3117C99.9191 54.2676 102.747 56.7329 102.747 60.9994C102.747 66.8759 97.8362 69.9048 87.995 69.9048H75.2358V38.3387ZM91.0339 47.6264C91.0339 46.0164 89.5145 45.0705 86.9586 45.0705H86.2945V50.4741C89.5145 50.4741 91.0238 49.5181 91.0238 47.6264H91.0339ZM86.868 62.8006C89.605 62.8006 91.1144 61.6636 91.1144 59.5806C91.1144 57.5782 89.4138 56.4411 86.2945 56.4411V62.8006H86.868ZM105.303 38.2481H125.629V45.9157H116.834V50.0011H124.784V57.3971H116.834V61.7541H125.629V69.9048H105.303V38.2481ZM128.185 38.2481H139.626V62.0359H148.048V69.9048H128.185V38.2481ZM158.261 38.2481H171.111L180.097 69.9048H168.938L168.093 65.2659H161.28L160.435 69.9048H149.266L158.251 38.2381L158.261 38.2481ZM166.955 58.9064L164.681 47.1534L162.417 58.9064H166.955ZM181.425 38.2481H192.766L199.105 54.9318V38.2381H209.51V69.9048H198.25L191.91 54.0764V69.9048H181.516V38.2481H181.425ZM241.649 54.2676C241.649 65.2659 237.121 70.4783 227.28 70.4783C217.731 70.4783 211.965 64.6924 211.965 54.0764C211.965 43.4504 217.64 37.5739 227.471 37.5739C234.565 37.5739 238.822 40.0392 241.086 45.2516L231.164 47.9081C230.309 45.8252 229.172 44.7888 227.28 44.7888C224.161 44.7888 223.406 47.6264 223.406 53.6035C223.406 59.5706 224.07 62.3277 227.19 62.3277C229.273 62.3277 230.309 60.8988 230.309 58.1518V57.6788H226.908V51.4199H241.378C241.559 52.4664 241.649 53.4123 241.649 54.2676ZM84.0304 0.886064L87.8944 21.4437L91.8691 0.876002H102.364L93.7608 32.3515H82.1286L73.5251 0.876002H84.0203L84.0304 0.886064ZM103.793 0.886064H114.379V24.4927H122.127V32.271H103.793V0.886064ZM131.123 0.886064H142.936L151.167 32.3616H140.853L140.099 27.7127H133.86L133.105 32.3616H122.801L131.123 0.886064ZM139.153 21.2626L136.979 9.69075L134.896 21.3633H139.153V21.2626ZM160.244 0.886064H172.057L180.288 32.3616H169.984L169.23 27.7127H162.991L162.226 32.3616H151.922L160.244 0.886064ZM168.374 21.2626L166.201 9.69075L164.118 21.3633H168.374V21.2626ZM183.971 0.886064H196.549L199.87 17.4791L203.17 0.876002H215.749L218.486 32.3616H208.846L208.091 10.0832L203.925 32.3616H196.076L191.921 10.0832L191.065 32.3616H181.516L183.971 0.886064ZM227.663 24.865C229.363 24.865 230.591 23.9191 230.591 22.6915C230.591 21.5544 229.454 20.6991 227.753 19.3709C223.316 15.9496 220.377 13.4944 220.377 9.409C220.377 4.19662 225.107 0.3125 231.919 0.3125C234.565 0.3125 237.403 0.976624 240.432 2.11369V10.2643C237.876 8.55369 235.702 7.70844 233.901 7.70844C232.291 7.70844 231.255 8.46312 231.255 9.60019C231.255 10.8379 232.482 11.5926 234.274 12.8202C239.003 16.0503 241.75 18.1432 241.75 22.7821C241.75 28.9504 236.739 33.0257 228.991 33.0257C225.962 33.0257 223.124 32.271 220.196 30.6509V21.9267C223.316 23.9191 225.861 24.865 227.663 24.865Z" fill="black"/>
<path d="M53.9636 16.6137H16.3298V54.3582H53.9636V16.6137Z" fill="white"/>
<path d="M69.9429 35.3904V0.876007H0.25V35.3904H16.8934V17.3785H53.4806V35.3904H69.9429Z" fill="#FFE500"/>
<path d="M69.9429 35.3904V69.9048H0.25V35.3904H16.8934V53.5029H53.4806V35.3904H69.9429Z" fill="black"/>
<path d="M32.3091 31.4056H36.8372C36.8372 31.4056 34.8549 35.7728 28.6162 32.1704L23.6956 37.101C23.6956 37.101 25.4062 38.3387 28.8979 38.5198C28.8979 38.5198 26.0603 41.7398 16.8933 40.0393V53.4123H45.7325C45.3615 52.1786 45.1386 50.9051 45.0684 49.6187C45.0684 49.6187 49.1336 55.6864 53.39 51.5105C53.39 51.5105 56.61 47.4352 54.7183 41.6493C54.7183 41.6493 52.1624 48.7634 49.516 43.9334C49.516 43.9334 47.0607 32.6433 57.9282 21.0815L54.2454 22.4098L59.4477 17.8514C59.4477 17.8514 53.39 20.6991 48.4795 19.4614C48.4795 19.4614 42.2408 18.3244 39.212 18.3244C39.212 18.3244 35.1467 18.5256 34.2813 21.3633C34.2813 21.3633 31.4538 20.5079 26.9156 23.0739L27.8615 28.6586C27.8615 28.6586 33.255 25.7203 35.7102 25.4386C35.7102 25.4386 39.9667 24.5833 38.9302 27.1492L37.6925 29.8057H31.2626L28.8979 29.6044C27.0062 29.8963 23.605 28.4774 21.0492 26.1933C19.5555 24.8483 17.9421 23.6425 16.2292 22.5909C7.15285 18.2338 0.813477 26.958 0.813477 26.958C0.813477 26.958 9.23579 22.7821 17.1751 28.1856C17.1751 28.1856 23.3132 32.0798 29.562 31.5063L32.3091 31.4056Z" fill="#666666"/>
</svg>
