<svg width="205" height="29" viewBox="0 0 205 29" fill="none" xmlns="http://www.w3.org/2000/svg">
<path d="M161.701 6.647H167.622L168.56 0.586498L149.45 1.292L148.614 6.647H154.535L151.182 27.88L157.956 28.135H158.297L161.701 6.647ZM139.631 1.649L135.579 27.285L142.702 27.557L146.831 1.3855L139.631 1.649ZM132.977 16.0735L135.237 1.819L128.037 2.074L126.007 15.0875C125.418 18.666 124.548 22.576 119.941 22.576C115.334 22.576 115.701 18.666 116.281 15.0875L118.26 2.4395L111.051 2.6945L108.944 16.0735C108.398 19.618 107.989 23.1285 110.292 25.7975C110.463 25.993 110.65 26.18 110.847 26.3585L126.885 26.962C127.482 26.622 128.037 26.2395 128.566 25.7975C131.74 23.1285 132.422 19.618 132.977 16.0735ZM108.065 9.061C108.5 6.29 107.903 4.25 106.581 2.873L88.6397 3.5275L85.1931 25.3895L92.3167 25.6615L93.5963 17.5355H93.6817L97.6657 25.8655L106.487 26.1885L100.805 16.8385C104.815 16.1585 107.443 12.8605 108.065 9.061ZM100.541 9.4945C100.072 12.495 97.3672 12.9285 95.0296 12.9285H94.33L95.4306 6.0605H96.1216C98.4592 6.0605 101.019 6.5025 100.541 9.4945ZM84.7665 13.8465C85.4149 9.758 84.1949 6.273 81.8659 3.774L59.4031 4.5985C56.6984 7.01621 54.8969 10.2765 54.2929 13.8465C53.6189 18.0455 54.4635 21.658 56.4683 24.3015L78.3083 25.126C81.6611 22.4315 84.0243 18.496 84.7665 13.8465ZM77.3102 13.8805C76.5424 18.632 72.49 22.1085 68.2159 22.1085C63.9417 22.1085 60.9814 18.632 61.7492 13.8805C62.3293 10.081 66.3902 6.613 70.6643 6.613C74.93 6.613 77.8903 10.081 77.3102 13.8805ZM52.9791 13.855C53.262 12.3101 53.2335 10.7246 52.8952 9.19084C52.5568 7.65707 51.9154 6.20576 51.0083 4.9215L26.4213 5.8225C24.3619 8.06506 23.0014 10.8558 22.5054 13.855C21.9338 17.4335 22.4713 20.587 23.8704 23.086L47.8177 23.987C50.4794 21.369 52.3392 17.884 52.9791 13.855ZM45.5313 13.889C44.7635 18.6405 40.7026 22.117 36.4284 22.117C32.1543 22.117 29.1939 18.6405 29.9618 13.889C30.5504 10.0895 34.6028 6.6215 38.8769 6.6215C43.1511 6.6215 46.1114 10.0895 45.5313 13.889ZM24.1776 5.899L16.38 6.188L10.1863 17.323L7.58428 6.511L0 6.783L4.08647 22.3295L14.324 22.712L24.1776 5.899ZM204.75 9.775L193.949 14.3905L200.092 0H196.185L192.832 8.4065L189.479 0H185.572L190.187 10.795L175.795 4.658V8.568L184.198 11.9255L175.795 15.2575V19.1675L186.595 14.5605L180.453 28.9425H184.36L187.713 20.5445L191.057 28.9425H194.965L190.358 18.1475L204.75 24.293V20.383L196.347 17.0255L204.75 13.685V9.775ZM188.481 13.753L190.998 12.682L192.073 15.198L189.556 16.269L188.481 13.753Z" fill="#FF2900"/>
</svg>
